<?xml version="1.0" standalone="no"?><!DOCTYPE svg PUBLIC "-//W3C//DTD SVG 1.1//EN" "http://www.w3.org/Graphics/SVG/1.1/DTD/svg11.dtd"><svg t="1544772951058" class="icon" style="" viewBox="0 0 1024 1024" version="1.1" xmlns="http://www.w3.org/2000/svg" p-id="2270" xmlns:xlink="http://www.w3.org/1999/xlink" width="200" height="200"><defs><style type="text/css"></style></defs><path d="M534.411259 583.046036m-440.953965 0a440.953964 440.953964 0 1 0 881.907929 0 440.953964 440.953964 0 1 0-881.907929 0Z" fill="#97C739" p-id="2271"></path><path d="M485.704123 1016.330369c-77.493152 0-154.089854-20.020724-221.622446-57.970455-6.573969-3.685407-8.864898-11.952671-5.179491-18.526641 3.685407-6.573969 11.952671-8.864898 18.52664-5.179491 63.548369 35.658803 135.563213 54.48426 208.374903 54.48426h0.597633c235.666835 0 427.307998-191.740768 427.307998-427.307998 0-117.933023-49.304769-231.583006-135.463607-312.163931-5.478308-5.079885-5.777124-13.745572-0.597634-19.22388 5.079885-5.478308 13.745572-5.777124 19.22388-0.597634 22.112442 20.817569 42.332377 43.826461 59.862962 68.429043 17.729796 24.901398 33.069057 51.695303 45.42015 79.485264 25.797849 58.070061 38.846182 120.024741 38.846182 184.071138 0 61.357046-11.952671 120.921191-35.758408 176.899535-23.008892 54.185443-55.779133 102.792973-97.513877 144.527717-41.734744 41.734744-90.342274 74.504984-144.527716 97.414271-56.077949 23.606526-115.542489 35.758408-176.899535 35.758408-0.099606-0.099606-0.398422-0.099606-0.597634-0.099606zM730.235856 207.931369c-2.589745 0-5.179491-0.796845-7.570025-2.290929-23.805737-15.837289-49.304769-29.38365-75.700251-40.041449-6.972392-2.888562-10.358982-10.757404-7.570025-17.729795 2.888562-6.972392 10.757404-10.358982 17.729795-7.570026 28.188383 11.454643 55.38071 25.797849 80.580926 42.7308 6.275152 4.183435 7.968448 12.64991 3.884618 18.925063-2.589745 3.884618-6.972392 5.976336-11.355038 5.976336zM80.20975 746.996843c-5.279096 0-10.358982-3.087773-12.550305-8.36687C43.853708 682.352813 31.801432 622.888273 31.901037 561.730438c0-61.357046 11.952671-120.921191 35.758408-176.899534 22.909287-54.085838 55.679527-102.693367 97.414271-144.527717 41.734744-41.734744 90.342274-74.504984 144.527717-97.414271 55.978344-23.706131 115.542489-35.758408 176.799929-35.758408h0.298817c34.065113 0 68.329437 3.884618 101.597706 11.454643 7.370814 1.693295 11.952671 8.964503 10.159771 16.335317-1.693295 7.370814-8.964503 11.952671-16.335318 10.159771-31.375762-7.071997-63.349158-10.757404-95.521764-10.757404h-0.298817c-235.56723 0-427.307998 191.740768-427.307998 427.307998 0 57.472428 11.255432 113.450772 33.567085 166.341342 2.988168 6.872786-0.398422 14.940839-7.271208 17.829401-1.59369 0.796845-3.38659 1.195267-5.079886 1.195267zM203.919898 913.935819c-3.087773 0-6.175547-1.095662-8.665687-3.087774-27.291933-22.710075-51.794909-48.806741-73.110506-77.293941-4.482252-5.976336-3.187379-14.542417 2.788957-19.024668 5.976336-4.482252 14.542417-3.187379 19.024668 2.788957 20.020724 26.793905 43.129222 51.197275 68.827466 72.612478 5.777124 4.880674 6.573969 13.446755 1.693295 19.124274-2.788957 3.187379-6.77318 4.880674-10.558193 4.880674z" fill="#040000" p-id="2272"></path><path d="M814.103766 540.912869L390.680387 278.153313c-23.706131-14.642022-54.783077 3.685407-54.783077 31.076945v525.618719c0 27.391538 31.076945 45.619362 54.783077 31.076945l421.530873-262.759556c25.499032-12.849122 25.499032-49.404375 1.892506-62.253497z" fill="#97C739" p-id="2273"></path><path d="M297.449551 506.349728c-7.570025 0-13.645966-6.075941-13.645967-13.645966V416.405877c0-7.570025 6.075941-13.645966 13.645967-13.645966s13.645966 6.075941 13.645966 13.645966v76.297885c0 7.47042-6.075941 13.645966-13.645966 13.645966z" fill="#060001" p-id="2274"></path><path d="M334.204015 875.089637c-8.267264 0-16.634134-2.191323-24.303765-6.474364-15.936895-8.964503-25.897454-25.499032-25.897455-43.328433V544.29946c0-7.570025 6.075941-13.645966 13.645967-13.645967s13.645966 6.075941 13.645966 13.645967v280.98738c0 8.167659 4.482252 15.438867 11.952671 19.622302 7.171603 3.984224 15.438867 3.984224 22.012837-0.099606l421.530873-262.759556c0.398422-0.199211 0.697239-0.398422 1.095662-0.597634 7.271208-3.685407 11.75346-10.85701 11.952671-19.124274 0.099606-8.167659-3.785013-15.14005-10.358982-18.725852-0.298817-0.099606-0.398422-0.298817-0.697239-0.398422L345.061025 280.145424c-9.562137-5.87673-18.626246-2.091717-22.012837-0.099605-7.570025 4.083829-11.952671 11.454643-11.952671 19.622302V348.674073c0 7.570025-6.075941 13.645966-13.645966 13.645966s-13.645966-6.075941-13.645967-13.645966v-49.005952c0-17.829401 9.960559-34.463536 25.897455-43.428039 15.936895-8.864898 34.463536-8.566081 49.603585 0.796845l423.024958 262.560345c15.339261 8.36687 24.602582 24.801793 24.303765 42.930011-0.298817 18.128218-10.358982 34.463536-26.295877 42.830406L359.40423 867.818429l-0.099606 0.099605c-7.669631 4.781069-16.434923 7.171603-25.100609 7.171603z" fill="#060001" p-id="2275"></path><path d="M372.452563 404.253994c-7.570025 0-13.645966-6.075941-13.645966-13.645966v-26.395482c0-7.570025 6.075941-13.645966 13.645966-13.645967s13.645966 6.075941 13.645966 13.645967v26.395482c-0.099606 7.570025-6.175547 13.645966-13.645966 13.645966zM372.452563 543.60222c-7.570025 0-13.645966-6.075941-13.645966-13.645966v-74.504984c0-7.570025 6.075941-13.645966 13.645966-13.645967s13.645966 6.075941 13.645966 13.645967V529.956254c-0.099606 7.47042-6.175547 13.645966-13.645966 13.645966z" fill="#FFFFFF" p-id="2276"></path><path d="M875.288574 98.666599a9.064109 1.693295 22.687 1 0 1.306197-3.124555 9.064109 1.693295 22.687 1 0-1.306197 3.124555Z" fill="#E61F19" p-id="2277"></path><path d="M868.165551 90.200497a1.693295 9.064109 82.687 1 0 17.980756-2.307534 1.693295 9.064109 82.687 1 0-17.980756 2.307534Z" fill="#E61F19" p-id="2278"></path><path d="M866.975016 86.943883a1.693295 9.064109 52.684 1 0 14.417449-10.989517 1.693295 9.064109 52.684 1 0-14.417449 10.989517Z" fill="#E61F19" p-id="2279"></path><path d="M864.396928 84.62474a1.693295 9.064109 22.687 1 0 6.991994-16.725558 1.693295 9.064109 22.687 1 0-6.991994 16.725558Z" fill="#E61F19" p-id="2280"></path><path d="M858.148616 75.411388a9.064109 1.693295 82.687 1 0 3.359043-0.431077 9.064109 1.693295 82.687 1 0-3.359043 0.431077Z" fill="#E61F19" p-id="2281"></path><path d="M850.894559 79.078057a9.064109 1.693295 52.684 1 0 2.69337-2.052987 9.064109 1.693295 52.684 1 0-2.69337 2.052987Z" fill="#E61F19" p-id="2282"></path><path d="M846.565944 86.014276a9.064109 1.693295 22.687 1 0 1.306197-3.124555 9.064109 1.693295 22.687 1 0-1.306197 3.124555Z" fill="#E61F19" p-id="2283"></path><path d="M836.885661 93.580452a1.693295 9.064109 82.687 1 0 17.980755-2.307535 1.693295 9.064109 82.687 1 0-17.980755 2.307535Z" fill="#E61F19" p-id="2284"></path><path d="M841.648055 105.53557a1.693295 9.064109 52.684 1 0 14.417448-10.989517 1.693295 9.064109 52.684 1 0-14.417448 10.989517Z" fill="#E61F19" p-id="2285"></path><path d="M851.758965 113.502408a1.693295 9.064109 22.687 1 0 6.991994-16.725558 1.693295 9.064109 22.687 1 0-6.991994 16.725558Z" fill="#E61F19" p-id="2286"></path><path d="M861.6254 106.590068a9.064109 1.693295 82.687 1 0 3.359043-0.431077 9.064109 1.693295 82.687 1 0-3.359043 0.431077Z" fill="#E61F19" p-id="2287"></path><path d="M869.498739 104.451974a9.064109 1.693295 52.684 1 0 2.693369-2.052987 9.064109 1.693295 52.684 1 0-2.693369 2.052987Z" fill="#E61F19" p-id="2288"></path><path d="M645.670707 10.911504c0.697239-1.59369 2.49014-2.390534 4.083829-1.693295l31.176551 13.048333c1.59369 0.697239 2.390534 2.49014 1.693295 4.083829-0.697239 1.693295-2.49014 2.390534-4.083829 1.693295L647.364002 14.995333c-1.693295-0.597634-2.390534-2.49014-1.693295-4.083829z" fill="#EF8218" p-id="2289"></path><path d="M654.734816 33.123551l13.048333-31.17655c0.697239-1.59369 2.49014-2.390534 4.083829-1.693296 1.693295 0.697239 2.390534 2.49014 1.693295 4.08383l-13.048332 31.176551c-0.697239 1.59369-2.49014 2.390534-4.08383 1.693295-1.693295-0.697239-2.390534-2.589745-1.693295-4.08383z" fill="#EF8218" p-id="2290"></path><path d="M889.30599 187.910644c0.697239-1.59369 2.49014-2.390534 4.083829-1.693295l31.176551 13.048333c1.59369 0.697239 2.390534 2.49014 1.693295 4.083829-0.697239 1.59369-2.49014 2.390534-4.083829 1.693296l-31.176551-13.048333c-1.494084-0.697239-2.390534-2.49014-1.693295-4.08383z" fill="#6EABDA" p-id="2291"></path><path d="M898.370099 210.023086l13.048333-31.176551c0.697239-1.59369 2.49014-2.390534 4.083829-1.693295 1.693295 0.697239 2.390534 2.49014 1.693295 4.08383l-13.048333 31.176551c-0.697239 1.59369-2.49014 2.390534-4.083829 1.693295-1.59369-0.697239-2.290929-2.49014-1.693295-4.08383z" fill="#6EABDA" p-id="2292"></path><path d="M548.183601 91.696478a22.510864 22.510864 0 1 0 17.364733-41.538201 22.510864 22.510864 0 1 0-17.364733 41.538201Z" fill="#7CCBE2" p-id="2293"></path><path d="M715.793045 81.033842c5.976336-14.2436 22.311653-21.116386 36.555253-15.239656s20.817569 22.411259 14.841234 36.654859-22.311653 21.116386-36.555253 15.239656c-14.143994-5.87673-20.817569-22.411259-14.841234-36.654859zM760.316746 99.660088c4.382646-10.458587-0.498028-22.61047-10.956616-26.993116-10.358982-4.382646-22.510864 0.597634-26.89351 11.155827-4.382646 10.458587 0.498028 22.510864 10.956615 26.89351 10.458587 4.482252 22.510864-0.597634 26.893511-11.056221z" fill="#E62A52" p-id="2294"></path></svg>