<?xml version="1.0" standalone="no"?><!DOCTYPE svg PUBLIC "-//W3C//DTD SVG 1.1//EN" "http://www.w3.org/Graphics/SVG/1.1/DTD/svg11.dtd"><svg t="1544772910835" class="icon" style="" viewBox="0 0 1024 1024" version="1.1" xmlns="http://www.w3.org/2000/svg" p-id="2153" xmlns:xlink="http://www.w3.org/1999/xlink" width="200" height="200"><defs><style type="text/css"></style></defs><path d="M512 938.666667C276.48 938.666667 85.333333 747.52 85.333333 512S276.48 85.333333 512 85.333333s426.666667 191.146667 426.666667 426.666667-191.146667 426.666667-426.666667 426.666667z m0-785.066667C314.026667 153.6 153.6 314.026667 153.6 512s160.426667 358.4 358.4 358.4 358.4-160.426667 358.4-358.4S709.973333 153.6 512 153.6z" fill="#3793DF" p-id="2154"></path><path d="M409.6 757.76c-11.946667 0-22.186667-3.413333-34.133333-8.533333-22.186667-11.946667-35.84-34.133333-35.84-59.733334V334.506667c0-23.893333 13.653333-47.786667 35.84-59.733334 22.186667-11.946667 47.786667-11.946667 68.266666 1.706667l307.2 175.786667c22.186667 13.653333 34.133333 35.84 34.133334 59.733333s-11.946667 46.08-32.426667 59.733333L443.733333 747.52c-10.24 6.826667-22.186667 10.24-34.133333 10.24z m0-423.253333v354.986666L716.8 512 409.6 334.506667z" fill="#EB4AF4" p-id="2155"></path></svg>