<?xml version="1.0" standalone="no"?><!DOCTYPE svg PUBLIC "-//W3C//DTD SVG 1.1//EN" "http://www.w3.org/Graphics/SVG/1.1/DTD/svg11.dtd"><svg t="1552387989773" class="icon" style="" viewBox="0 0 1024 1024" version="1.1" xmlns="http://www.w3.org/2000/svg" p-id="3366" xmlns:xlink="http://www.w3.org/1999/xlink" width="200" height="200"><defs><style type="text/css"></style></defs><path d="M65.771 502.182c0 246.632 199.937 446.566 446.57 446.565 246.613 0 446.549-199.934 446.551-446.565 0-246.633-199.936-446.549-446.55-446.55-246.635 0.001-446.57 199.917-446.571 446.55z m651.885-173.77c31.489 31.473 1.642 148.828-114.292 264.773C487.396 709.131 370.06 738.929 338.589 707.492c-27.278-27.315-74.96-60.574-12.892-110.423 62.087-49.886 79.429-25.343 107.582 2.772 19.674 19.711 69.436-21.368 112.394-64.328 42.94-42.996 83.986-92.719 64.368-112.43-28.155-28.153-52.679-45.511-2.792-107.562 49.904-62.049 83.125-14.405 110.406 12.891z" p-id="3367"></path></svg>